<?xml version="1.0" encoding="UTF-8"?>
<svg id="Layer_1" xmlns="http://www.w3.org/2000/svg" xmlns:xlink="http://www.w3.org/1999/xlink" version="1.1" viewBox="0 0 1024 1024">
  <!-- Generator: Adobe Illustrator 29.0.1, SVG Export Plug-In . SVG Version: 2.1.0 Build 192)  -->
  <defs>
    <style>
      .st0 {
        fill: url(#linear-gradient1);
      }

      .st1 {
        fill: #003;
      }

      .st2 {
        fill: url(#linear-gradient);
      }

      .st3 {
        fill: #fff;
      }
    </style>
    <linearGradient id="linear-gradient" x1="512" y1="-821.2" x2="512" y2="-208.2" gradientTransform="translate(0 1024)" gradientUnits="userSpaceOnUse">
      <stop offset="0" stop-color="#30d2ff"/>
      <stop offset="1" stop-color="#1775d4"/>
    </linearGradient>
    <linearGradient id="linear-gradient1" x1="512" y1="-762.8" x2="512" y2="-265.6" gradientTransform="translate(0 1024)" gradientUnits="userSpaceOnUse">
      <stop offset="0" stop-color="#1775d4"/>
      <stop offset="1" stop-color="#30d2ff"/>
    </linearGradient>
  </defs>
  <rect class="st1" x="100" y="100" width="824" height="824" rx="180" ry="180"/>
  <g>
    <circle class="st2" cx="512" cy="512" r="325"/>
    <circle class="st0" cx="512" cy="512" r="263.5"/>
  </g>
  <path class="st3" d="M598.3,628.5c-18.2,22.6-42.2,36.2-71,40-57.6,7.6-107-28-122.3-78.6-7.5-24.8-5.1-48.9,3.5-73,9.3-26,22.1-50.2,36.4-73.8,14.7-24.1,45.3-65.7,59.6-84.8,3.2-4.3,9.3-5.2,13.6-1.9.7.5,1.3,1.1,1.8,1.8,2.6,3.3,5.1,6.5,7.6,9.9,22.2,29.5,43.3,59.7,61.3,91.9,12.9,23.2,24.8,46.8,31.2,72.7,8.8,35.4,1,67.6-21.7,95.8h0Z"/>
</svg>