<?xml version="1.0" encoding="UTF-8"?>
<svg id="Layer_1" xmlns="http://www.w3.org/2000/svg" xmlns:xlink="http://www.w3.org/1999/xlink" version="1.1" viewBox="0 0 1024 1024">
  <!-- Generator: Adobe Illustrator 29.0.1, SVG Export Plug-In . SVG Version: 2.1.0 Build 192)  -->
  <defs>
    <style>
      .st0 {
        fill: url(#linear-gradient2);
      }

      .st1 {
        fill: url(#linear-gradient1);
      }

      .st2 {
        fill: url(#linear-gradient3);
      }

      .st3 {
        fill: url(#linear-gradient4);
      }

      .st4 {
        fill: #003;
      }

      .st5 {
        fill: url(#linear-gradient);
      }
    </style>
    <linearGradient id="linear-gradient" x1="532.1" y1="-726.8" x2="598.7" y2="-660.3" gradientTransform="translate(-290 1094)" gradientUnits="userSpaceOnUse">
      <stop offset="0" stop-color="#99e6fc"/>
      <stop offset=".4" stop-color="#71d5f9"/>
      <stop offset=".7" stop-color="#43c2f5"/>
      <stop offset="1" stop-color="#08a9f1"/>
    </linearGradient>
    <linearGradient id="linear-gradient1" x1="1405.9" y1="-997.2" x2="1425.3" y2="-865.3" gradientTransform="translate(-25.1 2088.9) rotate(-33.3)" gradientUnits="userSpaceOnUse">
      <stop offset="0" stop-color="#99e6fc"/>
      <stop offset=".4" stop-color="#71d5f9"/>
      <stop offset=".7" stop-color="#43c2f5"/>
      <stop offset="1" stop-color="#08a9f1"/>
    </linearGradient>
    <linearGradient id="linear-gradient2" x1="562.7" y1="-272.5" x2="569.8" y2="-106.8" gradientTransform="translate(-166.3 584.4) rotate(18.3)" gradientUnits="userSpaceOnUse">
      <stop offset="0" stop-color="#99e6fc"/>
      <stop offset=".4" stop-color="#71d5f9"/>
      <stop offset=".7" stop-color="#43c2f5"/>
      <stop offset="1" stop-color="#08a9f1"/>
    </linearGradient>
    <linearGradient id="linear-gradient3" x1="1295.3" y1="-1089.6" x2="1307.5" y2="-1006.1" gradientTransform="translate(-130.8 1833.1) rotate(-24.3)" gradientUnits="userSpaceOnUse">
      <stop offset="0" stop-color="#99e6fc"/>
      <stop offset=".4" stop-color="#71d5f9"/>
      <stop offset=".7" stop-color="#43c2f5"/>
      <stop offset="1" stop-color="#08a9f1"/>
    </linearGradient>
    <linearGradient id="linear-gradient4" x1="1046.8" y1="-734.9" x2="1084.9" y2="-696.8" gradientTransform="translate(-290 1094)" gradientUnits="userSpaceOnUse">
      <stop offset="0" stop-color="#99e6fc"/>
      <stop offset=".4" stop-color="#71d5f9"/>
      <stop offset=".7" stop-color="#43c2f5"/>
      <stop offset="1" stop-color="#08a9f1"/>
    </linearGradient>
  </defs>
  <rect class="st4" x="100" y="100" width="824" height="824" rx="180" ry="180"/>
  <g>
    <circle class="st5" cx="274.2" cy="399.3" r="59.3"/>
    <path class="st1" d="M606.9,669.9c22.9-46,61.3-83.6,109.4-105.1,35.2-15.7,55.8-52.7,50.6-90.8-10-72.2-99.2-100.4-149-47.2-5.3,5.7-10.3,11.6-14.9,17.8-50.6,66.8-58.1,152.9-26.9,224.6,5.8,13.3,24.4,13.6,30.9.6h0Z"/>
    <path class="st0" d="M523.3,754.8c-42.4-48-100.8-80.8-165.6-91.2-47.4-7.5-84.3-45.4-90.2-93-11.3-90.1,87-152.9,164.1-104.8,8.2,5.1,16.1,10.6,23.8,16.6,82.5,64.1,119.2,165.2,105,261.6-2.6,17.8-25,24.3-37,10.8h-.1Z"/>
    <path class="st2" d="M586,424.8c18.9-26.6,46.7-46.3,79-54.9,23.6-6.3,40.2-27.4,40.7-51.9,1-46.2-52.1-72.7-88.6-44.4-3.9,3.1-7.6,6.2-11.2,9.6-38.4,36.8-51.6,89.9-39.3,137.9,2.3,8.9,14,11,19.3,3.5h0v.2Z"/>
    <circle class="st3" cx="775.2" cy="377.5" r="33.9"/>
  </g>
</svg>