<?xml version="1.0" encoding="UTF-8"?>
<svg id="Layer_1" xmlns="http://www.w3.org/2000/svg" xmlns:xlink="http://www.w3.org/1999/xlink" version="1.1" viewBox="0 0 1024 1024">
  <!-- Generator: Adobe Illustrator 29.0.1, SVG Export Plug-In . SVG Version: 2.1.0 Build 192)  -->
  <defs>
    <style>
      .st0 {
        fill: url(#linear-gradient2);
      }

      .st1 {
        fill: url(#linear-gradient1);
      }

      .st2 {
        fill: url(#linear-gradient9);
      }

      .st3 {
        fill: url(#linear-gradient3);
      }

      .st4 {
        fill: url(#linear-gradient6);
      }

      .st5 {
        fill: url(#linear-gradient8);
      }

      .st6 {
        fill: url(#linear-gradient7);
      }

      .st7 {
        fill: url(#linear-gradient5);
      }

      .st8 {
        fill: url(#linear-gradient4);
      }

      .st9 {
        fill: #003;
      }

      .st10 {
        fill: url(#linear-gradient13);
      }

      .st11 {
        fill: url(#linear-gradient12);
      }

      .st12 {
        fill: url(#linear-gradient15);
      }

      .st13 {
        fill: url(#linear-gradient16);
      }

      .st14 {
        fill: url(#linear-gradient11);
      }

      .st15 {
        fill: url(#linear-gradient10);
      }

      .st16 {
        fill: url(#linear-gradient17);
      }

      .st17 {
        fill: url(#linear-gradient14);
      }

      .st18 {
        fill: url(#linear-gradient);
      }
    </style>
    <linearGradient id="linear-gradient" x1="429.4" y1="814" x2="521.2" y2="722.2" gradientTransform="translate(-290 1126) scale(1 -1)" gradientUnits="userSpaceOnUse">
      <stop offset="0" stop-color="#99e6fc"/>
      <stop offset="0" stop-color="#8ee1fb"/>
      <stop offset=".4" stop-color="#71d5f9"/>
      <stop offset=".7" stop-color="#43c2f5"/>
      <stop offset="1" stop-color="#08a9f1"/>
    </linearGradient>
    <linearGradient id="linear-gradient1" x1="473.8" y1="756.5" x2="473.8" y2="687.2" gradientTransform="translate(-290 1126) scale(1 -1)" gradientUnits="userSpaceOnUse">
      <stop offset="0" stop-color="#0593fc" stop-opacity="0"/>
      <stop offset="0" stop-color="#0492fc" stop-opacity="0"/>
      <stop offset=".2" stop-color="#0491fc" stop-opacity="0"/>
      <stop offset=".4" stop-color="#048ffc" stop-opacity=".2"/>
      <stop offset=".5" stop-color="#038dfc" stop-opacity=".3"/>
      <stop offset=".7" stop-color="#028afc" stop-opacity=".5"/>
      <stop offset=".8" stop-color="#0286fc" stop-opacity=".7"/>
      <stop offset="1" stop-color="#0182fc"/>
      <stop offset="1" stop-color="#0182fc"/>
    </linearGradient>
    <linearGradient id="linear-gradient2" x1="486.6" y1="769.7" x2="556.1" y2="769.7" gradientTransform="translate(-290 1126) scale(1 -1)" gradientUnits="userSpaceOnUse">
      <stop offset="0" stop-color="#0593fc" stop-opacity="0"/>
      <stop offset="0" stop-color="#0492fc" stop-opacity="0"/>
      <stop offset=".2" stop-color="#0491fc" stop-opacity="0"/>
      <stop offset=".4" stop-color="#048ffc" stop-opacity=".2"/>
      <stop offset=".5" stop-color="#038dfc" stop-opacity=".3"/>
      <stop offset=".7" stop-color="#028afc" stop-opacity=".5"/>
      <stop offset=".8" stop-color="#0286fc" stop-opacity=".7"/>
      <stop offset="1" stop-color="#0182fc"/>
      <stop offset="1" stop-color="#0182fc"/>
    </linearGradient>
    <linearGradient id="linear-gradient3" x1="505.3" y1="738.9" x2="538.5" y2="705.7" gradientTransform="translate(-290 1126) scale(1 -1)" gradientUnits="userSpaceOnUse">
      <stop offset="0" stop-color="#99e6fc" stop-opacity="0"/>
      <stop offset=".2" stop-color="#99e6fc" stop-opacity="0"/>
      <stop offset=".3" stop-color="#99e6fc" stop-opacity="0"/>
      <stop offset=".4" stop-color="#99e6fc" stop-opacity=".1"/>
      <stop offset=".5" stop-color="#99e6fc" stop-opacity=".2"/>
      <stop offset=".6" stop-color="#99e6fc" stop-opacity=".3"/>
      <stop offset=".7" stop-color="#99e6fc" stop-opacity=".5"/>
      <stop offset=".8" stop-color="#99e6fc" stop-opacity=".7"/>
      <stop offset=".9" stop-color="#99e6fc" stop-opacity=".9"/>
      <stop offset="1" stop-color="#99e6fc"/>
    </linearGradient>
    <linearGradient id="linear-gradient4" x1="1140" y1="825.1" x2="1192.4" y2="772.5" gradientTransform="translate(-290 1126) scale(1 -1)" gradientUnits="userSpaceOnUse">
      <stop offset="0" stop-color="#99e6fc"/>
      <stop offset="0" stop-color="#8ee1fb"/>
      <stop offset=".4" stop-color="#71d5f9"/>
      <stop offset=".7" stop-color="#43c2f5"/>
      <stop offset="1" stop-color="#08a9f1"/>
    </linearGradient>
    <linearGradient id="linear-gradient5" x1="1165.4" y1="792.3" x2="1165.4" y2="752.6" gradientTransform="translate(-290 1126) scale(1 -1)" gradientUnits="userSpaceOnUse">
      <stop offset="0" stop-color="#0593fc" stop-opacity="0"/>
      <stop offset="0" stop-color="#0492fc" stop-opacity="0"/>
      <stop offset=".2" stop-color="#0491fc" stop-opacity="0"/>
      <stop offset=".4" stop-color="#048ffc" stop-opacity=".2"/>
      <stop offset=".5" stop-color="#038dfc" stop-opacity=".3"/>
      <stop offset=".7" stop-color="#028afc" stop-opacity=".5"/>
      <stop offset=".8" stop-color="#0286fc" stop-opacity=".7"/>
      <stop offset="1" stop-color="#0182fc"/>
      <stop offset="1" stop-color="#0182fc"/>
    </linearGradient>
    <linearGradient id="linear-gradient6" x1="1172.7" y1="799.8" x2="1212.5" y2="799.8" gradientTransform="translate(-290 1126) scale(1 -1)" gradientUnits="userSpaceOnUse">
      <stop offset="0" stop-color="#0593fc" stop-opacity="0"/>
      <stop offset="0" stop-color="#0492fc" stop-opacity="0"/>
      <stop offset=".2" stop-color="#0491fc" stop-opacity="0"/>
      <stop offset=".4" stop-color="#048ffc" stop-opacity=".2"/>
      <stop offset=".5" stop-color="#038dfc" stop-opacity=".3"/>
      <stop offset=".7" stop-color="#028afc" stop-opacity=".5"/>
      <stop offset=".8" stop-color="#0286fc" stop-opacity=".7"/>
      <stop offset="1" stop-color="#0182fc"/>
      <stop offset="1" stop-color="#0182fc"/>
    </linearGradient>
    <linearGradient id="linear-gradient7" x1="1183.4" y1="782.1" x2="1202.4" y2="763.2" gradientTransform="translate(-290 1126) scale(1 -1)" gradientUnits="userSpaceOnUse">
      <stop offset="0" stop-color="#99e6fc" stop-opacity="0"/>
      <stop offset=".2" stop-color="#99e6fc" stop-opacity="0"/>
      <stop offset=".3" stop-color="#99e6fc" stop-opacity="0"/>
      <stop offset=".4" stop-color="#99e6fc" stop-opacity=".1"/>
      <stop offset=".5" stop-color="#99e6fc" stop-opacity=".2"/>
      <stop offset=".6" stop-color="#99e6fc" stop-opacity=".3"/>
      <stop offset=".7" stop-color="#99e6fc" stop-opacity=".5"/>
      <stop offset=".8" stop-color="#99e6fc" stop-opacity=".7"/>
      <stop offset=".9" stop-color="#99e6fc" stop-opacity=".9"/>
      <stop offset="1" stop-color="#99e6fc"/>
    </linearGradient>
    <linearGradient id="linear-gradient8" x1="1086.9" y1="828.5" x2="1113.6" y2="646.4" gradientTransform="translate(183.3 1761.9) rotate(-33.3) scale(1 -1)" gradientUnits="userSpaceOnUse">
      <stop offset="0" stop-color="#99e6fc"/>
      <stop offset="0" stop-color="#8ee1fb"/>
      <stop offset=".4" stop-color="#71d5f9"/>
      <stop offset=".7" stop-color="#43c2f5"/>
      <stop offset="1" stop-color="#08a9f1"/>
    </linearGradient>
    <linearGradient id="linear-gradient9" x1="1408" y1="711.5" x2="1398.6" y2="631.5" gradientTransform="translate(2283.3 382.7) rotate(146.7)" gradientUnits="userSpaceOnUse">
      <stop offset="0" stop-color="#0593fc" stop-opacity="0"/>
      <stop offset="0" stop-color="#0492fc" stop-opacity="0"/>
      <stop offset=".2" stop-color="#0491fc" stop-opacity="0"/>
      <stop offset=".4" stop-color="#048ffc" stop-opacity=".2"/>
      <stop offset=".5" stop-color="#038dfc" stop-opacity=".3"/>
      <stop offset=".7" stop-color="#028afc" stop-opacity=".5"/>
      <stop offset=".8" stop-color="#0286fc" stop-opacity=".7"/>
      <stop offset="1" stop-color="#0182fc"/>
      <stop offset="1" stop-color="#0182fc"/>
    </linearGradient>
    <linearGradient id="linear-gradient10" x1="1175.7" y1="752.6" x2="1251" y2="669.3" gradientTransform="translate(183.3 1761.9) rotate(-33.3) scale(1 -1)" gradientUnits="userSpaceOnUse">
      <stop offset="0" stop-color="#0593fc" stop-opacity="0"/>
      <stop offset="0" stop-color="#0492fc" stop-opacity="0"/>
      <stop offset=".2" stop-color="#0491fc" stop-opacity="0"/>
      <stop offset=".4" stop-color="#048ffc" stop-opacity=".2"/>
      <stop offset=".5" stop-color="#038dfc" stop-opacity=".3"/>
      <stop offset=".7" stop-color="#028afc" stop-opacity=".5"/>
      <stop offset=".8" stop-color="#0286fc" stop-opacity=".7"/>
      <stop offset="1" stop-color="#0182fc"/>
      <stop offset="1" stop-color="#0182fc"/>
    </linearGradient>
    <linearGradient id="linear-gradient11" x1="1089.5" y1="622.7" x2="1152.9" y2="600.3" gradientTransform="translate(-290 1126) scale(1 -1)" gradientUnits="userSpaceOnUse">
      <stop offset="0" stop-color="#99e6fc" stop-opacity="0"/>
      <stop offset=".2" stop-color="#99e6fc" stop-opacity="0"/>
      <stop offset=".3" stop-color="#99e6fc" stop-opacity="0"/>
      <stop offset=".4" stop-color="#99e6fc" stop-opacity=".1"/>
      <stop offset=".5" stop-color="#99e6fc" stop-opacity=".2"/>
      <stop offset=".6" stop-color="#99e6fc" stop-opacity=".3"/>
      <stop offset=".7" stop-color="#99e6fc" stop-opacity=".5"/>
      <stop offset=".8" stop-color="#99e6fc" stop-opacity=".7"/>
      <stop offset=".9" stop-color="#99e6fc" stop-opacity=".9"/>
      <stop offset="1" stop-color="#99e6fc"/>
    </linearGradient>
    <linearGradient id="linear-gradient12" x1="670.9" y1="481.9" x2="680.8" y2="253.1" gradientTransform="translate(-357.2 745.4) rotate(18.3) scale(1 -1)" gradientUnits="userSpaceOnUse">
      <stop offset="0" stop-color="#99e6fc"/>
      <stop offset="0" stop-color="#8ee1fb"/>
      <stop offset=".4" stop-color="#71d5f9"/>
      <stop offset=".7" stop-color="#43c2f5"/>
      <stop offset="1" stop-color="#08a9f1"/>
    </linearGradient>
    <linearGradient id="linear-gradient13" x1="680.9" y1="307.7" x2="669.2" y2="208" gradientTransform="translate(-357.2 745.4) rotate(18.3) scale(1 -1)" gradientUnits="userSpaceOnUse">
      <stop offset="0" stop-color="#0593fc" stop-opacity="0"/>
      <stop offset="0" stop-color="#0492fc" stop-opacity="0"/>
      <stop offset=".2" stop-color="#0491fc" stop-opacity="0"/>
      <stop offset=".4" stop-color="#048ffc" stop-opacity=".2"/>
      <stop offset=".5" stop-color="#038dfc" stop-opacity=".3"/>
      <stop offset=".7" stop-color="#028afc" stop-opacity=".5"/>
      <stop offset=".8" stop-color="#0286fc" stop-opacity=".7"/>
      <stop offset="1" stop-color="#0182fc"/>
      <stop offset="1" stop-color="#0182fc"/>
    </linearGradient>
    <linearGradient id="linear-gradient14" x1="816.8" y1="355.6" x2="883.3" y2="365.4" gradientTransform="translate(-357.2 745.4) rotate(18.3) scale(1 -1)" gradientUnits="userSpaceOnUse">
      <stop offset="0" stop-color="#0593fc" stop-opacity="0"/>
      <stop offset="0" stop-color="#0492fc" stop-opacity="0"/>
      <stop offset=".2" stop-color="#0491fc" stop-opacity="0"/>
      <stop offset=".4" stop-color="#048ffc" stop-opacity=".2"/>
      <stop offset=".5" stop-color="#038dfc" stop-opacity=".3"/>
      <stop offset=".7" stop-color="#028afc" stop-opacity=".5"/>
      <stop offset=".8" stop-color="#0286fc" stop-opacity=".7"/>
      <stop offset="1" stop-color="#0182fc"/>
      <stop offset="1" stop-color="#0182fc"/>
    </linearGradient>
    <linearGradient id="linear-gradient15" x1="1110.3" y1="1018.6" x2="1127.2" y2="903.3" gradientTransform="translate(42.5 1614.2) rotate(-24.3) scale(1 -1)" gradientUnits="userSpaceOnUse">
      <stop offset="0" stop-color="#99e6fc"/>
      <stop offset="0" stop-color="#8ee1fb"/>
      <stop offset=".4" stop-color="#71d5f9"/>
      <stop offset=".7" stop-color="#43c2f5"/>
      <stop offset="1" stop-color="#08a9f1"/>
    </linearGradient>
    <linearGradient id="linear-gradient16" x1="1391.1" y1="944.2" x2="1385.1" y2="893.4" gradientTransform="translate(2333 581.4) rotate(155.7)" gradientUnits="userSpaceOnUse">
      <stop offset="0" stop-color="#0593fc" stop-opacity="0"/>
      <stop offset="0" stop-color="#0492fc" stop-opacity="0"/>
      <stop offset=".2" stop-color="#0491fc" stop-opacity="0"/>
      <stop offset=".4" stop-color="#048ffc" stop-opacity=".2"/>
      <stop offset=".5" stop-color="#038dfc" stop-opacity=".3"/>
      <stop offset=".7" stop-color="#028afc" stop-opacity=".5"/>
      <stop offset=".8" stop-color="#0286fc" stop-opacity=".7"/>
      <stop offset="1" stop-color="#0182fc"/>
      <stop offset="1" stop-color="#0182fc"/>
    </linearGradient>
    <linearGradient id="linear-gradient17" x1="1166" y1="969.9" x2="1213.8" y2="917.1" gradientTransform="translate(42.5 1614.2) rotate(-24.3) scale(1 -1)" gradientUnits="userSpaceOnUse">
      <stop offset="0" stop-color="#0593fc" stop-opacity="0"/>
      <stop offset="0" stop-color="#0492fc" stop-opacity="0"/>
      <stop offset=".2" stop-color="#0491fc" stop-opacity="0"/>
      <stop offset=".4" stop-color="#048ffc" stop-opacity=".2"/>
      <stop offset=".5" stop-color="#038dfc" stop-opacity=".3"/>
      <stop offset=".7" stop-color="#028afc" stop-opacity=".5"/>
      <stop offset=".8" stop-color="#0286fc" stop-opacity=".7"/>
      <stop offset="1" stop-color="#0182fc"/>
      <stop offset="1" stop-color="#0182fc"/>
    </linearGradient>
  </defs>
  <rect class="st9" width="1024" height="1024" rx="223.7" ry="223.7"/>
  <g>
    <circle class="st18" cx="183.7" cy="356.3" r="81.9"/>
    <path class="st1" d="M101.9,356.3c0,45.2,36.7,81.9,81.9,81.9s81.9-36.7,81.9-81.9,0-4.5-.2-6.7H102.3c-.1,2.2-.2,4.5-.2,6.7h-.1Z"/>
    <path class="st0" d="M183.7,274.4c-5.2,0-10.4.5-15.4,1.5v160.8c5,1,10.2,1.5,15.4,1.5,45.2,0,81.9-36.7,81.9-81.9s-36.7-81.9-81.9-81.9h0Z"/>
    <path class="st3" d="M241.2,298l-115.7,115.7c14.8,15,35.4,24.4,58.2,24.4,45.2,0,81.9-36.7,81.9-81.9s-9.3-43.4-24.4-58.2h0Z"/>
    <circle class="st8" cx="875.2" cy="326.2" r="46.9"/>
    <path class="st7" d="M828.5,326.2c0,25.8,21,46.9,46.9,46.9s46.9-21,46.9-46.9,0-2.6-.1-3.9h-93.3c0,1.2-.1,2.6-.1,3.9h-.1Z"/>
    <path class="st4" d="M875.2,279.4c-3,0-6,.2-8.8.9v92c2.9.5,5.8.9,8.8.9,25.8,0,46.9-21,46.9-46.9s-21-46.9-46.9-46.9Z"/>
    <path class="st6" d="M908.2,292.9l-66.2,66.2c8.5,8.6,20.3,13.9,33.3,13.9,25.8,0,46.9-21,46.9-46.9s-5.3-24.9-13.9-33.3h0Z"/>
    <path class="st5" d="M643,729.8c31.6-63.5,84.6-115.4,151-145,48.6-21.6,77-72.7,69.8-125.4-13.8-99.7-136.9-138.6-205.7-65.1-7.3,7.8-14.2,16-20.6,24.6-69.8,92.2-80.2,211-37.2,310.1,8,18.4,33.7,18.8,42.6.9h0Z"/>
    <path class="st2" d="M863.9,459.4c7.2,52.7-21.3,103.8-69.8,125.4-66.4,29.6-119.4,81.5-151,145-8.9,17.9-34.7,17.4-42.6-.9-26.5-61-32.7-129.4-17.3-194.5l234.6-154.1c23.9,17.8,41.5,44.9,46.1,79h0Z"/>
    <path class="st15" d="M658.3,394.3c-7.3,7.8-14.2,16-20.6,24.6-5.2,7-10.2,14.2-14.9,21.5l115.8,176.5c17.4-12.6,35.9-23.4,55.5-32.1,48.6-21.6,77-72.7,69.8-125.4-13.8-99.7-136.9-138.6-205.7-65.1h0Z"/>
    <path class="st14" d="M658.3,394.3c-7.3,7.8-14.2,16-20.6,24.6-5.2,7-10.2,14.2-14.9,21.5l115.8,176.5c17.4-12.6,35.9-23.4,55.5-32.1,48.6-21.6,77-72.7,69.8-125.4-13.8-99.7-136.9-138.6-205.7-65.1h0Z"/>
    <path class="st11" d="M527.7,847c-58.5-66.2-139.2-111.6-228.7-125.9-65.5-10.3-116.3-62.6-124.5-128.4-15.7-124.4,120-211,226.5-144.7,11.3,7.1,22.2,14.7,32.8,22.9,113.8,88.5,164.5,228,144.9,361.1-3.6,24.6-34.5,33.6-51.1,14.9Z"/>
    <path class="st10" d="M174.6,592.9c8.3,65.7,59,118.1,124.5,128.4,89.5,14.2,170,59.5,228.7,125.9,16.5,18.6,47.3,9.8,51.1-14.9,12.2-81.9-2.5-166.3-42-239.7l-332.2-109.6c-23,29.1-35.4,67.4-30.1,110h0Z"/>
    <path class="st17" d="M433.8,471.1c-8.2-6.5-16.8-12.4-25.5-18.1l-89.8,272c81.6,17.3,154.8,60.8,209.1,122.2,16.5,18.6,47.3,9.8,51.1-14.9,19.8-133.1-30.9-272.8-144.9-361.1h0Z"/>
    <path class="st12" d="M614.2,391.6c26.1-36.7,64.5-63.9,109-75.8,32.6-8.7,55.5-37.8,56.2-71.6,1.4-63.8-72-100.4-122.3-61.3-5.3,4.2-10.4,8.6-15.4,13.3-52.9,50.8-71.2,124.1-54.2,190.4,3.1,12.3,19.3,15.2,26.6,4.8h.1Z"/>
    <path class="st13" d="M779.3,244.3c-.7,33.7-23.6,62.9-56.2,71.6-44.5,11.9-82.9,39.1-109,75.8-7.3,10.3-23.5,7.5-26.6-4.8-10.4-40.8-7.6-84.3,8.6-123.5l162.3-73.1c13.2,13.5,21.5,32.2,21,54.1h-.1Z"/>
    <path class="st16" d="M657.1,183.1c-5.3,4.2-10.4,8.6-15.4,13.3-4,3.9-7.8,7.8-11.4,12.1l54.9,122c12.1-6.2,24.9-11.1,37.9-14.5,32.6-8.7,55.5-37.8,56.2-71.6,1.4-63.8-72-100.4-122.3-61.3h.1Z"/>
  </g>
</svg>