<?xml version="1.0" encoding="UTF-8"?>
<svg id="Layer_1" xmlns="http://www.w3.org/2000/svg" xmlns:xlink="http://www.w3.org/1999/xlink" version="1.1" viewBox="0 0 1024 1024">
  <!-- Generator: Adobe Illustrator 29.0.1, SVG Export Plug-In . SVG Version: 2.1.0 Build 192)  -->
  <defs>
    <style>
      .st0 {
        fill: url(#linear-gradient2);
      }

      .st1 {
        fill: url(#linear-gradient1);
      }

      .st2 {
        fill: url(#linear-gradient9);
      }

      .st3 {
        fill: url(#linear-gradient3);
      }

      .st4 {
        fill: url(#linear-gradient6);
      }

      .st5 {
        fill: url(#linear-gradient8);
      }

      .st6 {
        fill: url(#linear-gradient7);
      }

      .st7 {
        fill: url(#linear-gradient5);
      }

      .st8 {
        fill: url(#linear-gradient4);
      }

      .st9 {
        fill: #003;
      }

      .st10 {
        fill: url(#linear-gradient13);
      }

      .st11 {
        fill: url(#linear-gradient12);
      }

      .st12 {
        fill: url(#linear-gradient15);
      }

      .st13 {
        fill: url(#linear-gradient16);
      }

      .st14 {
        fill: url(#linear-gradient11);
      }

      .st15 {
        fill: url(#linear-gradient10);
      }

      .st16 {
        fill: url(#linear-gradient17);
      }

      .st17 {
        fill: url(#linear-gradient14);
      }

      .st18 {
        fill: url(#linear-gradient);
      }
    </style>
    <linearGradient id="linear-gradient" x1="502.2" y1="249" x2="576.1" y2="322.9" gradientTransform="translate(-290 102)" gradientUnits="userSpaceOnUse">
      <stop offset="0" stop-color="#99e6fc"/>
      <stop offset=".1" stop-color="#8ee1fb"/>
      <stop offset=".4" stop-color="#71d5f9"/>
      <stop offset=".7" stop-color="#43c2f5"/>
      <stop offset="1" stop-color="#08a9f1"/>
    </linearGradient>
    <linearGradient id="linear-gradient1" x1="537.8" y1="295.3" x2="537.8" y2="351.1" gradientTransform="translate(-290 102)" gradientUnits="userSpaceOnUse">
      <stop offset="0" stop-color="#0593fc" stop-opacity="0"/>
      <stop offset=".1" stop-color="#0492fc" stop-opacity="0"/>
      <stop offset=".2" stop-color="#0491fc" stop-opacity="0"/>
      <stop offset=".4" stop-color="#048ffc" stop-opacity=".2"/>
      <stop offset=".5" stop-color="#038dfc" stop-opacity=".3"/>
      <stop offset=".7" stop-color="#028afc" stop-opacity=".5"/>
      <stop offset=".8" stop-color="#0286fc" stop-opacity=".7"/>
      <stop offset="1" stop-color="#0182fc" stop-opacity="1"/>
      <stop offset="1" stop-color="#0182fc"/>
    </linearGradient>
    <linearGradient id="linear-gradient2" x1="548.2" y1="284.7" x2="604.1" y2="284.7" xlink:href="#linear-gradient1"/>
    <linearGradient id="linear-gradient3" x1="563" y1="309.8" x2="589.7" y2="336.5" gradientTransform="translate(-290 102)" gradientUnits="userSpaceOnUse">
      <stop offset="0" stop-color="#99e6fc" stop-opacity="0"/>
      <stop offset=".2" stop-color="#99e6fc" stop-opacity="0"/>
      <stop offset=".3" stop-color="#99e6fc" stop-opacity="0"/>
      <stop offset=".4" stop-color="#99e6fc" stop-opacity=".1"/>
      <stop offset=".5" stop-color="#99e6fc" stop-opacity=".2"/>
      <stop offset=".6" stop-color="#99e6fc" stop-opacity=".3"/>
      <stop offset=".7" stop-color="#99e6fc" stop-opacity=".5"/>
      <stop offset=".8" stop-color="#99e6fc" stop-opacity=".7"/>
      <stop offset=".9" stop-color="#99e6fc" stop-opacity=".9"/>
      <stop offset="1" stop-color="#99e6fc"/>
    </linearGradient>
    <linearGradient id="linear-gradient4" x1="1074" y1="240.1" x2="1116.2" y2="282.4" xlink:href="#linear-gradient"/>
    <linearGradient id="linear-gradient5" x1="1094.3" y1="266.5" x2="1094.3" y2="298.5" xlink:href="#linear-gradient1"/>
    <linearGradient id="linear-gradient6" x1="1100.3" y1="260.5" x2="1132.3" y2="260.5" xlink:href="#linear-gradient1"/>
    <linearGradient id="linear-gradient7" x1="1108.7" y1="274.9" x2="1124" y2="290.1" xlink:href="#linear-gradient3"/>
    <linearGradient id="linear-gradient8" x1="708.6" y1="379.4" x2="730.1" y2="525.9" gradientTransform="translate(-188 552.3) rotate(-33.3)" xlink:href="#linear-gradient"/>
    <linearGradient id="linear-gradient9" x1="797.7" y1="473.5" x2="790.1" y2="537.9" gradientTransform="translate(1082.9 -282.3) rotate(146.7) scale(1 -1)" xlink:href="#linear-gradient1"/>
    <linearGradient id="linear-gradient10" x1="780" y1="440.5" x2="840.6" y2="507.5" gradientTransform="translate(-188 552.3) rotate(-33.3)" xlink:href="#linear-gradient1"/>
    <linearGradient id="linear-gradient11" x1="1033.4" y1="402.9" x2="1084.4" y2="420.9" xlink:href="#linear-gradient3"/>
    <linearGradient id="linear-gradient12" x1="817.4" y1="358.8" x2="825.3" y2="542.9" gradientTransform="translate(-216.5 -96.2) rotate(18.3)" xlink:href="#linear-gradient"/>
    <linearGradient id="linear-gradient13" x1="825.3" y1="499" x2="815.9" y2="579.2" gradientTransform="translate(-216.5 -96.2) rotate(18.3)" xlink:href="#linear-gradient1"/>
    <linearGradient id="linear-gradient14" x1="934.8" y1="460.5" x2="988.3" y2="452.6" gradientTransform="translate(-216.5 -96.2) rotate(18.3)" xlink:href="#linear-gradient1"/>
    <linearGradient id="linear-gradient15" x1="817.8" y1="206" x2="831.4" y2="298.8" gradientTransform="translate(-218.7 432.9) rotate(-24.3)" xlink:href="#linear-gradient"/>
    <linearGradient id="linear-gradient16" x1="693.7" y1="265.6" x2="688.9" y2="306.5" gradientTransform="translate(1167.7 -191.7) rotate(155.7) scale(1 -1)" xlink:href="#linear-gradient1"/>
    <linearGradient id="linear-gradient17" x1="862.8" y1="244.8" x2="901.3" y2="287.3" gradientTransform="translate(-218.7 432.9) rotate(-24.3)" xlink:href="#linear-gradient1"/>
  </defs>
  <rect class="st9" x="100" y="100" width="824" height="824" rx="180" ry="180"/>
  <g>
    <circle class="st18" cx="247.8" cy="386.7" r="65.9"/>
    <path class="st1" d="M182,386.7c0,36.4,29.5,65.9,65.9,65.9s65.9-29.5,65.9-65.9,0-3.6-.2-5.4h-131.3c-.1,1.8-.2,3.6-.2,5.4Z"/>
    <path class="st0" d="M247.8,320.8c-4.2,0-8.4.4-12.4,1.2v129.4c4,.8,8.2,1.2,12.4,1.2,36.4,0,65.9-29.5,65.9-65.9s-29.5-65.9-65.9-65.9Z"/>
    <path class="st3" d="M294.1,339.8l-93.1,93.1c11.9,12.1,28.5,19.6,46.8,19.6,36.4,0,65.9-29.5,65.9-65.9s-7.5-34.9-19.6-46.8Z"/>
    <circle class="st8" cx="804.3" cy="362.5" r="37.7"/>
    <path class="st7" d="M766.7,362.5c0,20.8,16.9,37.7,37.7,37.7s37.7-16.9,37.7-37.7,0-2.1-.1-3.1h-75.1c0,1-.1,2.1-.1,3.1Z"/>
    <path class="st4" d="M804.3,324.8c-2.4,0-4.8.2-7.1.7v74c2.3.4,4.7.7,7.1.7,20.8,0,37.7-16.9,37.7-37.7s-16.9-37.7-37.7-37.7Z"/>
    <path class="st6" d="M830.8,335.7l-53.3,53.3c6.8,6.9,16.3,11.2,26.8,11.2,20.8,0,37.7-16.9,37.7-37.7s-4.3-20-11.2-26.8h0Z"/>
    <path class="st5" d="M617.4,687.3c25.4-51.1,68.1-92.9,121.5-116.7,39.1-17.4,62-58.5,56.2-100.9-11.1-80.2-110.2-111.5-165.5-52.4-5.9,6.3-11.4,12.9-16.6,19.8-56.2,74.2-64.5,169.8-29.9,249.5,6.4,14.8,27.1,15.1,34.3.7h0Z"/>
    <path class="st2" d="M795.2,469.7c5.8,42.4-17.1,83.5-56.2,100.9-53.4,23.8-96.1,65.6-121.5,116.7-7.2,14.4-27.9,14-34.3-.7-21.3-49.1-26.3-104.1-13.9-156.5l188.8-124c19.2,14.3,33.4,36.1,37.1,63.6h0Z"/>
    <path class="st15" d="M629.7,417.3c-5.9,6.3-11.4,12.9-16.6,19.8-4.2,5.6-8.2,11.4-12,17.3l93.2,142c14-10.1,28.9-18.8,44.7-25.8,39.1-17.4,62-58.5,56.2-100.9-11.1-80.2-110.2-111.5-165.5-52.4Z"/>
    <path class="st14" d="M629.7,417.3c-5.9,6.3-11.4,12.9-16.6,19.8-4.2,5.6-8.2,11.4-12,17.3l93.2,142c14-10.1,28.9-18.8,44.7-25.8,39.1-17.4,62-58.5,56.2-100.9-11.1-80.2-110.2-111.5-165.5-52.4Z"/>
    <path class="st11" d="M524.6,781.6c-47.1-53.3-112-89.8-184-101.3-52.7-8.3-93.6-50.4-100.2-103.3-12.6-100.1,96.6-169.8,182.3-116.4,9.1,5.7,17.9,11.8,26.4,18.4,91.6,71.2,132.4,183.5,116.6,290.6-2.9,19.8-27.8,27-41.1,12Z"/>
    <path class="st10" d="M240.5,577.1c6.7,52.9,47.5,95,100.2,103.3,72,11.4,136.8,47.9,184,101.3,13.3,15,38.1,7.9,41.1-12,9.8-65.9-2-133.8-33.8-192.9l-267.3-88.2c-18.5,23.4-28.5,54.2-24.2,88.5Z"/>
    <path class="st17" d="M449.1,479.1c-6.6-5.2-13.5-10-20.5-14.6l-72.3,218.9c65.7,13.9,124.6,48.9,168.3,98.3,13.3,15,38.1,7.9,41.1-12,15.9-107.1-24.9-219.5-116.6-290.6h0Z"/>
    <path class="st12" d="M594.2,415.1c21-29.5,51.9-51.4,87.7-61,26.2-7,44.7-30.4,45.2-57.6,1.1-51.3-57.9-80.8-98.4-49.3-4.3,3.4-8.4,6.9-12.4,10.7-42.6,40.9-57.3,99.9-43.6,153.2,2.5,9.9,15.5,12.2,21.4,3.9h0Z"/>
    <path class="st13" d="M727.1,296.6c-.6,27.1-19,50.6-45.2,57.6-35.8,9.6-66.7,31.5-87.7,61-5.9,8.3-18.9,6-21.4-3.9-8.4-32.8-6.1-67.8,6.9-99.4l130.6-58.8c10.6,10.9,17.3,25.9,16.9,43.5h0Z"/>
    <path class="st16" d="M628.8,247.3c-4.3,3.4-8.4,6.9-12.4,10.7-3.2,3.1-6.3,6.3-9.2,9.7l44.2,98.2c9.7-5,20-8.9,30.5-11.7,26.2-7,44.7-30.4,45.2-57.6,1.1-51.3-57.9-80.8-98.4-49.3Z"/>
  </g>
</svg>