<?xml version="1.0" encoding="UTF-8"?>
<svg id="Layer_1" xmlns="http://www.w3.org/2000/svg" version="1.1" viewBox="0 0 1024 1024">
  <!-- Generator: Adobe Illustrator 29.0.1, SVG Export Plug-In . SVG Version: 2.1.0 Build 192)  -->
  <defs>
    <style>
      .st0 {
        fill: #fff;
      }
    </style>
  </defs>
  <circle class="st0" cx="120.2" cy="326.2" r="97.7"/>
  <circle class="st0" cx="945.6" cy="290.3" r="55.9"/>
  <path class="st0" d="M668.4,772c37.7-75.8,101-137.8,180.2-173.1,58-25.8,92-86.8,83.4-149.7-16.5-119-163.5-165.4-245.5-77.7-8.8,9.3-16.9,19.1-24.6,29.4-83.4,110.1-95.7,251.9-44.4,370.1,9.5,22,40.2,22.4,50.9,1h0Z"/>
  <path class="st0" d="M932.1,449.3c8.6,62.9-25.4,123.9-83.4,149.7-79.2,35.3-142.5,97.3-180.2,173.1-10.7,21.4-41.4,20.8-50.9-1-31.6-72.8-39-154.4-20.6-232.1l280-183.9c28.5,21.2,49.5,53.5,55,94.3h0Z"/>
  <path class="st0" d="M686.7,371.6c-8.8,9.3-16.9,19.1-24.6,29.4-6.2,8.3-12.2,16.9-17.8,25.7l138.2,210.6c20.8-15,42.9-27.9,66.3-38.3,58-25.8,92-86.8,83.4-149.7-16.5-119-163.5-165.4-245.5-77.7h0Z"/>
  <path class="st0" d="M686.7,371.6c-8.8,9.3-16.9,19.1-24.6,29.4-6.2,8.3-12.2,16.9-17.8,25.7l138.2,210.6c20.8-15,42.9-27.9,66.3-38.3,58-25.8,92-86.8,83.4-149.7-16.5-119-163.5-165.4-245.5-77.7h0Z"/>
  <path class="st0" d="M530.8,911.9c-69.9-79.1-166.1-133.2-272.9-150.3-78.2-12.3-138.8-74.8-148.6-153.2-18.7-148.5,143.3-251.9,270.4-172.7,13.5,8.5,26.6,17.5,39.2,27.3,135.9,105.6,196.4,272.2,173,431-4.3,29.4-41.2,40-61,17.8Z"/>
  <path class="st0" d="M109.4,608.6c9.9,78.5,70.5,140.9,148.6,153.2,106.8,16.9,202.9,71,272.9,150.3,19.7,22.2,56.5,11.7,61-17.8,14.5-97.7-3-198.5-50.1-286.1l-396.5-130.8c-27.4,34.7-42.3,80.4-35.9,131.3h0Z"/>
  <path class="st0" d="M418.8,463.2c-9.8-7.7-20-14.8-30.4-21.7l-107.2,324.7c97.5,20.6,184.8,72.5,249.6,145.8,19.7,22.2,56.5,11.7,61-17.8,23.6-158.9-36.9-325.6-173-431h0Z"/>
  <path class="st0" d="M634,368.3c31.1-43.8,77-76.2,130.1-90.5,38.9-10.4,66.3-45.1,67-85.4,1.6-76.1-85.9-119.9-146-73.1-6.4,5-12.5,10.2-18.4,15.9-63.2,60.7-85,148.2-64.7,227.2,3.7,14.7,23,18.1,31.7,5.8h.1Z"/>
  <path class="st0" d="M831.1,192.5c-.9,40.2-28.2,75.1-67,85.4-53.1,14.2-98.9,46.7-130.1,90.5-8.8,12.3-28,8.9-31.7-5.8-12.5-48.7-9-100.6,10.2-147.4l193.7-87.2c15.7,16.2,25.7,38.4,25.1,64.5h-.1Z"/>
  <path class="st0" d="M685.3,119.4c-6.4,5-12.5,10.2-18.4,15.9-4.7,4.6-9.3,9.3-13.6,14.4l65.6,145.7c14.4-7.4,29.7-13.2,45.2-17.4,38.9-10.4,66.3-45.1,67-85.4,1.6-76.1-85.9-119.9-146-73.1h.1Z"/>
</svg>